<svg xmlns="http://www.w3.org/2000/svg" width="110.859" height="37.163" viewBox="0 0 110.859 37.163">
    <defs>
        <style>
            .cls-1{fill:#8d8d8d}
        </style>
    </defs>
    <g id="logo_english_new" data-name="logo english new" transform="translate(-7.9 -5.6)">
        <path id="Path_5059" d="M81.087 68.616l-1.556.352s-2.112.667-3.131-2.3l5.8-1.368z" class="cls-1" data-name="Path 5059" transform="translate(-55.81 -48.64)"/>
        <path id="Path_5060" d="M33.151 17.883a13.223 13.223 0 0 0-.389-2.742l-7.577 1.816a4.825 4.825 0 1 1-4.65-3.576 4.724 4.724 0 0 1 3.5 1.519l8.077-1.7a12.625 12.625 0 1 0-11.6 17.637h.241v11.889c13.398-11.153 12.398-24.843 12.398-24.843z" class="cls-1" data-name="Path 5060"/>
        <path id="Path_5061" d="M347.075 104.639s0-5.058-5.187-5.058h-1.927v-2.52c0-5.224-5.243-5.261-5.243-5.261s-.019 1.723-.019 6.91V112.808h5.243v-8.151h7.133z" class="cls-1" data-name="Path 5061" transform="translate(-266.257 -70.231)"/>
        <path id="Path_5062" d="M120.509 140.414V133.8h-6.6a6.614 6.614 0 1 0 0 13.228h6.614v-6.614zm-6.6 2.52a2.538 2.538 0 1 1 2.538-2.538 2.542 2.542 0 0 1-2.533 2.537z" class="cls-1" data-name="Path 5062" transform="translate(-80.985 -104.45)"/>
        <path id="Path_5063" d="M269.7 104.639c-.056-4.817-4.835-5.039-5.206-5.058h-2.631v-2.52c0-5.224-5.243-5.261-5.243-5.261s-.019 1.723-.019 6.91v14.079h5.243v-8.151h2.594v3.094c0 .222.019.445.037.648v4.409h5.206v-8.151z" class="cls-1" data-name="Path 5063" transform="translate(-202.626 -70.231)"/>
        <path id="Path_5064" d="M197.429 141.9a3.151 3.151 0 0 0-3.464-3.038h-.926c4.391-.5 4.391-5.058 4.391-5.058h-6.855c-5.224 0-4.965 5.113-4.965 5.113a3.151 3.151 0 0 0 3.464 3.038h.537c-4.242.574-4.02 5.058-4.02 5.058h6.632c4.854 0 5.169-4.483 5.187-5.058v-.037c.037-.019.037-.019.019-.019z" class="cls-1" data-name="Path 5064" transform="translate(-144.771 -104.45)"/>
        <path id="Path_5065" d="M537.536 112.627l-2.26-3a48.675 48.675 0 0 1-.519-.7c-.7-.945-1.63-2.149-2.8-3.705l-.019-.019c-.3-.408-.63-.834-.963-1.278.259-.185.556-.389.834-.593.371-.259.778-.537 1.2-.852 4.391-3.075 1.427-7.392 1.427-7.392s-1.464 1-5.836 4.057l-.018.019c-.371.259-.76.537-1.186.834-.074.056-.167.111-.241.167v-3.3c0-5.224-5.243-5.261-5.243-5.261s-.018 1.723-.018 6.91v14.08h5.243v-4.983c.241.315.482.648.741.982q.472.611 1 1.334a7.036 7.036 0 0 0 .574.685l1.63 2.019h6.447z" class="cls-1" data-name="Path 5065" transform="translate(-418.777 -70.068)"/>
        <path id="Path_5066" d="M390.436 132.4a6.836 6.836 0 1 0 6.836 6.836 6.831 6.831 0 0 0-6.836-6.836zm0 9.448a2.612 2.612 0 1 1 2.612-2.612 2.609 2.609 0 0 1-2.612 2.612z" class="cls-1" data-name="Path 5066" transform="translate(-306.098 -103.309)"/>
        <path id="Path_5067" d="M460.636 132.4a6.836 6.836 0 1 0 6.836 6.836 6.831 6.831 0 0 0-6.836-6.836zm0 9.448a2.612 2.612 0 1 1 2.612-2.612 2.609 2.609 0 0 1-2.612 2.612z" class="cls-1" data-name="Path 5067" transform="translate(-363.293 -103.309)"/>
    </g>
</svg>
